<?xml version="1.0" encoding="UTF-8"?>
<svg xmlns="http://www.w3.org/2000/svg" xmlns:xlink="http://www.w3.org/1999/xlink" viewBox="216 1251 170 47" width="170" height="47">
<defs>
<g>
<g id="glyph-0-0">
<path d="M 10.015625 -10 L 12.109375 -10 L 12.109375 0 L 9.78125 0 L 9.78125 -6.25 L 6.84375 -2.65625 L 6.390625 -2.65625 L 3.40625 -6.265625 L 3.40625 0 L 1.078125 0 L 1.078125 -10 L 3.1875 -10 L 6.59375 -5.734375 Z M 10.015625 -10 "/>
</g>
<g id="glyph-0-1">
<path d="M 8.8125 0 L 8.0625 -1.796875 L 3.140625 -1.796875 L 2.40625 0 L -0.09375 0 L 4.390625 -10 L 6.890625 -10 L 11.34375 0 Z M 5.625 -7.75 L 3.984375 -3.8125 L 7.234375 -3.8125 Z M 5.625 -7.75 "/>
</g>
<g id="glyph-0-2">
<path d="M 9.1875 -10 L 9.1875 -4.234375 C 9.1875 -3.335938 9 -2.554688 8.625 -1.890625 C 8.257812 -1.222656 7.738281 -0.707031 7.0625 -0.34375 C 6.394531 0.0195312 5.613281 0.203125 4.71875 0.203125 C 3.320312 0.203125 2.234375 -0.179688 1.453125 -0.953125 C 0.679688 -1.722656 0.289062 -2.816406 0.28125 -4.234375 L 2.578125 -4.234375 C 2.578125 -3.472656 2.765625 -2.890625 3.140625 -2.484375 C 3.515625 -2.085938 4.039062 -1.890625 4.71875 -1.890625 C 5.382812 -1.890625 5.90625 -2.09375 6.28125 -2.5 C 6.65625 -2.914062 6.84375 -3.503906 6.84375 -4.265625 L 6.84375 -7.96875 L 3.921875 -7.96875 L 3.921875 -10 Z M 9.1875 -10 "/>
</g>
<g id="glyph-0-3">
<path d="M 3.359375 -1.96875 L 8.875 -1.96875 L 8.875 0 L 1.078125 0 L 1.078125 -10 L 8.71875 -10 L 8.71875 -8.046875 L 3.359375 -8.046875 L 3.359375 -6.015625 L 8.421875 -6.015625 L 8.421875 -4.125 L 3.359375 -4.125 Z M 3.359375 -1.96875 "/>
</g>
<g id="glyph-0-4">
<path d="M 4.78125 0.234375 C 3.96875 0.234375 3.179688 0.109375 2.421875 -0.140625 C 1.660156 -0.390625 1.003906 -0.738281 0.453125 -1.1875 L 1.671875 -2.890625 C 2.554688 -2.191406 3.585938 -1.84375 4.765625 -1.84375 C 5.359375 -1.84375 5.828125 -1.941406 6.171875 -2.140625 C 6.523438 -2.335938 6.703125 -2.609375 6.703125 -2.953125 C 6.703125 -3.273438 6.539062 -3.523438 6.21875 -3.703125 C 5.894531 -3.890625 5.378906 -4.019531 4.671875 -4.09375 C 3.304688 -4.25 2.304688 -4.566406 1.671875 -5.046875 C 1.046875 -5.535156 0.734375 -6.234375 0.734375 -7.140625 C 0.734375 -7.742188 0.898438 -8.28125 1.234375 -8.75 C 1.578125 -9.21875 2.054688 -9.578125 2.671875 -9.828125 C 3.296875 -10.085938 4.015625 -10.21875 4.828125 -10.21875 C 5.523438 -10.21875 6.203125 -10.117188 6.859375 -9.921875 C 7.523438 -9.722656 8.109375 -9.441406 8.609375 -9.078125 L 7.515625 -7.4375 C 6.734375 -7.976562 5.867188 -8.25 4.921875 -8.25 C 4.347656 -8.25 3.882812 -8.15625 3.53125 -7.96875 C 3.1875 -7.78125 3.015625 -7.523438 3.015625 -7.203125 C 3.015625 -6.878906 3.160156 -6.632812 3.453125 -6.46875 C 3.753906 -6.300781 4.257812 -6.171875 4.96875 -6.078125 C 6.320312 -5.929688 7.332031 -5.597656 8 -5.078125 C 8.664062 -4.554688 9 -3.84375 9 -2.9375 C 9 -2.3125 8.820312 -1.757812 8.46875 -1.28125 C 8.113281 -0.800781 7.617188 -0.425781 6.984375 -0.15625 C 6.347656 0.101562 5.613281 0.234375 4.78125 0.234375 Z M 4.78125 0.234375 "/>
</g>
<g id="glyph-0-5">
<path d="M 8.671875 -10 L 8.671875 -7.953125 L 5.609375 -7.953125 L 5.609375 0 L 3.265625 0 L 3.265625 -7.953125 L 0.234375 -7.953125 L 0.234375 -10 Z M 8.671875 -10 "/>
</g>
<g id="glyph-0-6">
<path d="M 1.078125 -10 L 3.421875 -10 L 3.421875 0 L 1.078125 0 Z M 1.078125 -10 "/>
</g>
<g id="glyph-0-7">
<path d="M 5.890625 0.234375 C 4.816406 0.234375 3.875 0.015625 3.0625 -0.421875 C 2.25 -0.859375 1.617188 -1.472656 1.171875 -2.265625 C 0.734375 -3.054688 0.515625 -3.96875 0.515625 -5 C 0.515625 -6.03125 0.738281 -6.941406 1.1875 -7.734375 C 1.644531 -8.523438 2.273438 -9.132812 3.078125 -9.5625 C 3.890625 -10 4.816406 -10.21875 5.859375 -10.21875 C 7.328125 -10.21875 8.59375 -9.703125 9.65625 -8.671875 L 8.21875 -7.21875 C 7.570312 -7.832031 6.800781 -8.140625 5.90625 -8.140625 C 5.3125 -8.140625 4.78125 -8.007812 4.3125 -7.75 C 3.851562 -7.488281 3.5 -7.117188 3.25 -6.640625 C 3 -6.160156 2.875 -5.613281 2.875 -5 C 2.875 -4.375 3 -3.820312 3.25 -3.34375 C 3.5 -2.875 3.851562 -2.507812 4.3125 -2.25 C 4.78125 -1.988281 5.3125 -1.859375 5.90625 -1.859375 C 6.382812 -1.859375 6.84375 -1.941406 7.28125 -2.109375 C 7.71875 -2.285156 8.097656 -2.535156 8.421875 -2.859375 L 9.796875 -1.328125 C 8.722656 -0.285156 7.421875 0.234375 5.890625 0.234375 Z M 5.890625 0.234375 "/>
</g>
<g id="glyph-1-0">
<path d="M 0.78125 -5.5625 L 0.78125 0 L 1.546875 0 L 1.546875 -1.734375 L 3.078125 -1.734375 C 4.421875 -1.734375 5.03125 -2.671875 5.03125 -3.65625 C 5.03125 -4.640625 4.421875 -5.5625 3.078125 -5.5625 Z M 1.546875 -2.453125 L 1.546875 -4.84375 L 3.046875 -4.84375 C 3.90625 -4.84375 4.25 -4.265625 4.25 -3.640625 C 4.25 -3.03125 3.90625 -2.453125 3.046875 -2.453125 Z M 1.546875 -2.453125 "/>
</g>
<g id="glyph-1-1">
<path d="M 5.15625 0 L 3.390625 -1.984375 C 4.328125 -2.140625 4.90625 -2.8125 4.90625 -3.765625 C 4.90625 -4.84375 4.15625 -5.5625 3 -5.5625 L 0.78125 -5.5625 L 0.78125 0 L 1.5625 0 L 1.5625 -1.953125 L 2.453125 -1.953125 L 4.171875 0 Z M 4.140625 -3.734375 C 4.140625 -3.078125 3.703125 -2.671875 2.96875 -2.671875 L 1.5625 -2.671875 L 1.5625 -4.828125 L 2.96875 -4.828125 C 3.703125 -4.828125 4.140625 -4.421875 4.140625 -3.734375 Z M 4.140625 -3.734375 "/>
</g>
<g id="glyph-1-2">
<path d="M 1.546875 0 L 1.546875 -5.5625 L 0.78125 -5.5625 L 0.78125 0 Z M 1.546875 0 "/>
</g>
<g id="glyph-1-3">
<path d="M 1.546875 0 L 1.546875 -3.828125 C 1.546875 -4.03125 1.53125 -4.171875 1.53125 -4.296875 L 1.546875 -4.296875 C 1.609375 -4.1875 1.6875 -4.078125 1.9375 -3.734375 L 4.671875 0 L 5.421875 0 L 5.421875 -5.5625 L 4.65625 -5.5625 L 4.65625 -1.71875 C 4.65625 -1.53125 4.65625 -1.390625 4.671875 -1.265625 L 4.65625 -1.25 C 4.578125 -1.359375 4.5 -1.46875 4.25 -1.828125 L 1.53125 -5.5625 L 0.78125 -5.5625 L 0.78125 0 Z M 1.546875 0 "/>
</g>
<g id="glyph-1-4">
<path d="M 0.140625 -5.5625 L 0.140625 -4.859375 L 1.984375 -4.859375 L 1.984375 0 L 2.75 0 L 2.75 -4.859375 L 4.59375 -4.859375 L 4.59375 -5.5625 Z M 0.140625 -5.5625 "/>
</g>
<g id="glyph-1-5">
</g>
<g id="glyph-1-6">
<path d="M 2.546875 0.109375 C 3.78125 0.109375 4.65625 -0.53125 4.65625 -1.59375 C 4.65625 -2.46875 4.125 -2.984375 2.71875 -3.234375 C 1.734375 -3.40625 1.34375 -3.640625 1.34375 -4.109375 C 1.34375 -4.640625 1.890625 -4.953125 2.59375 -4.953125 C 3.078125 -4.953125 3.609375 -4.828125 4 -4.515625 L 4.421875 -5.078125 C 3.859375 -5.5 3.265625 -5.671875 2.578125 -5.671875 C 1.4375 -5.671875 0.578125 -5.03125 0.578125 -4.078125 C 0.578125 -3.21875 1.1875 -2.765625 2.5 -2.5625 C 3.53125 -2.390625 3.875 -2.09375 3.875 -1.578125 C 3.875 -0.96875 3.296875 -0.609375 2.546875 -0.609375 C 1.875 -0.609375 1.265625 -0.859375 0.796875 -1.203125 L 0.421875 -0.625 C 0.921875 -0.203125 1.671875 0.109375 2.546875 0.109375 Z M 2.546875 0.109375 "/>
</g>
<g id="glyph-1-7">
<path d="M 3.21875 0.125 C 4.921875 0.125 6.078125 -1.0625 6.078125 -2.796875 C 6.078125 -4.5 4.921875 -5.671875 3.265625 -5.671875 C 1.5625 -5.671875 0.40625 -4.5 0.40625 -2.765625 C 0.40625 -1.0625 1.5625 0.125 3.21875 0.125 Z M 3.234375 -0.609375 C 2.03125 -0.609375 1.203125 -1.5 1.203125 -2.796875 C 1.203125 -4.078125 2.046875 -4.953125 3.25 -4.953125 C 4.453125 -4.953125 5.28125 -4.078125 5.28125 -2.765625 C 5.28125 -1.5 4.4375 -0.609375 3.234375 -0.609375 Z M 3.234375 -0.609375 "/>
</g>
<g id="glyph-1-8">
<path d="M 1.546875 -5.5625 L 0.78125 -5.5625 L 0.78125 0 L 4.53125 0 L 4.53125 -0.71875 L 1.546875 -0.71875 Z M 1.546875 -5.5625 "/>
</g>
<g id="glyph-1-9">
<path d="M 2.984375 0.109375 C 4.34375 0.109375 5.25 -0.828125 5.25 -2.25 L 5.25 -5.5625 L 4.5 -5.5625 L 4.5 -2.265625 C 4.5 -1.25 3.890625 -0.609375 2.984375 -0.609375 C 2.078125 -0.609375 1.46875 -1.25 1.46875 -2.265625 L 1.46875 -5.5625 L 0.703125 -5.5625 L 0.703125 -2.25 C 0.703125 -0.828125 1.609375 0.109375 2.984375 0.109375 Z M 2.984375 0.109375 "/>
</g>
<g id="glyph-2-0">
<path d="M 1.703125 -2.921875 C 2.125 -2.921875 2.3125 -2.75 2.3125 -2.375 C 2.3125 -2 2.125 -1.84375 1.671875 -1.84375 L 0.9375 -1.84375 L 0.9375 -2.921875 Z M 0.359375 0 L 0.9375 0 L 0.9375 -1.34375 L 1.703125 -1.34375 C 1.90625 -1.34375 2.0625 -1.359375 2.1875 -1.390625 C 2.296875 -1.421875 2.40625 -1.46875 2.484375 -1.53125 C 2.734375 -1.71875 2.875 -2 2.875 -2.359375 C 2.875 -2.796875 2.71875 -3.125 2.40625 -3.296875 C 2.328125 -3.328125 2.234375 -3.375 2.125 -3.390625 C 2.03125 -3.40625 1.875 -3.421875 1.65625 -3.421875 L 0.359375 -3.421875 Z M 0.359375 0 "/>
</g>
<g id="glyph-2-1">
<path d="M 1.625 -2.5625 C 1.59375 -2.5625 1.546875 -2.5625 1.515625 -2.5625 L 1.5 -2.5625 C 1.1875 -2.5625 0.953125 -2.390625 0.8125 -2.0625 L 0.8125 -2.5 L 0.3125 -2.5 L 0.3125 0 L 0.828125 0 L 0.828125 -1.359375 C 0.828125 -1.796875 1.046875 -2.015625 1.484375 -2.015625 L 1.625 -2.015625 Z M 1.625 -2.5625 "/>
</g>
<g id="glyph-2-2">
<path d="M 0.3125 0 L 0.84375 0 L 0.84375 -2.5 L 0.3125 -2.5 Z M 0.3125 -2.875 L 0.84375 -2.875 L 0.84375 -3.421875 L 0.3125 -3.421875 Z M 0.3125 -2.875 "/>
</g>
<g id="glyph-2-3">
<path d="M 2.46875 -1.59375 C 2.46875 -1.953125 2.390625 -2.203125 2.265625 -2.34375 C 2.125 -2.5 1.90625 -2.5625 1.59375 -2.5625 C 1.265625 -2.5625 1 -2.421875 0.828125 -2.171875 L 0.828125 -2.5 L 0.3125 -2.5 L 0.3125 0 L 0.84375 0 L 0.84375 -1.453125 C 0.84375 -1.875 1.078125 -2.109375 1.484375 -2.109375 C 1.765625 -2.109375 1.9375 -1.953125 1.9375 -1.640625 L 1.9375 0 L 2.46875 0 Z M 2.46875 -1.59375 "/>
</g>
<g id="glyph-2-4">
<path d="M 0.375 -2.5 L 0.015625 -2.5 L 0.015625 -2.109375 L 0.375 -2.109375 L 0.375 -0.578125 C 0.375 -0.34375 0.421875 -0.1875 0.5 -0.09375 C 0.59375 -0.015625 0.734375 0.03125 0.953125 0.03125 C 1.015625 0.03125 1.109375 0.03125 1.265625 0.015625 C 1.296875 0 1.3125 0 1.3125 0 L 1.3125 -0.421875 L 1.21875 -0.40625 C 1.1875 -0.40625 1.140625 -0.40625 1.109375 -0.40625 C 0.953125 -0.40625 0.90625 -0.453125 0.90625 -0.640625 L 0.90625 -2.109375 L 1.3125 -2.109375 L 1.3125 -2.5 L 0.90625 -2.5 L 0.90625 -3.1875 L 0.375 -3.1875 Z M 0.375 -2.5 "/>
</g>
<g id="glyph-2-5">
<path d="M 0.375 0 L 0.953125 0 L 0.953125 -0.59375 L 0.375 -0.59375 Z M 0.375 0 "/>
</g>
<g id="glyph-2-6">
</g>
<g id="glyph-2-7">
<path d="M 1.78125 -0.9375 C 1.78125 -0.765625 1.71875 -0.625 1.59375 -0.515625 C 1.453125 -0.40625 1.296875 -0.34375 1.09375 -0.34375 C 0.84375 -0.34375 0.6875 -0.484375 0.6875 -0.703125 C 0.6875 -0.90625 0.8125 -1.03125 1.0625 -1.078125 C 1.09375 -1.09375 1.15625 -1.109375 1.25 -1.109375 C 1.5 -1.15625 1.671875 -1.203125 1.78125 -1.25 Z M 1.796875 -0.328125 C 1.8125 -0.078125 1.96875 0.046875 2.28125 0.046875 C 2.375 0.046875 2.453125 0.03125 2.5625 0.015625 L 2.5625 -0.375 C 2.484375 -0.375 2.46875 -0.375 2.453125 -0.375 C 2.34375 -0.375 2.296875 -0.40625 2.296875 -0.609375 L 2.296875 -1.84375 C 2.296875 -2.328125 1.953125 -2.578125 1.296875 -2.578125 C 0.96875 -2.578125 0.71875 -2.515625 0.546875 -2.375 C 0.359375 -2.21875 0.265625 -2.03125 0.265625 -1.78125 L 0.265625 -1.734375 L 0.765625 -1.734375 L 0.765625 -1.75 C 0.765625 -2 0.953125 -2.140625 1.265625 -2.140625 C 1.625 -2.140625 1.78125 -2.03125 1.78125 -1.796875 C 1.78125 -1.640625 1.625 -1.546875 1.28125 -1.5 C 1.265625 -1.5 1.234375 -1.5 1.234375 -1.5 C 0.828125 -1.453125 0.546875 -1.359375 0.390625 -1.234375 C 0.25 -1.109375 0.171875 -0.90625 0.171875 -0.65625 C 0.171875 -0.421875 0.234375 -0.25 0.375 -0.109375 C 0.53125 0.015625 0.71875 0.078125 0.96875 0.078125 C 1.296875 0.078125 1.59375 -0.0625 1.796875 -0.328125 Z M 1.796875 -0.328125 "/>
</g>
<g id="glyph-2-8">
<path d="M 2.421875 -1.65625 C 2.40625 -1.9375 2.296875 -2.171875 2.109375 -2.328125 C 1.921875 -2.5 1.65625 -2.578125 1.34375 -2.578125 C 0.984375 -2.578125 0.703125 -2.46875 0.484375 -2.234375 C 0.28125 -1.984375 0.1875 -1.65625 0.1875 -1.25 C 0.1875 -0.84375 0.28125 -0.515625 0.484375 -0.28125 C 0.671875 -0.03125 0.953125 0.078125 1.296875 0.078125 C 1.625 0.078125 1.890625 0 2.09375 -0.1875 C 2.296875 -0.359375 2.40625 -0.609375 2.421875 -0.921875 L 1.90625 -0.921875 C 1.859375 -0.578125 1.65625 -0.390625 1.34375 -0.390625 C 0.953125 -0.390625 0.734375 -0.6875 0.734375 -1.25 C 0.734375 -1.828125 0.9375 -2.125 1.359375 -2.125 C 1.671875 -2.125 1.875 -1.953125 1.90625 -1.65625 Z M 2.421875 -1.65625 "/>
</g>
<g id="glyph-2-9">
<path d="M 0.3125 0 L 0.828125 0 L 0.828125 -0.828125 L 1.1875 -1.203125 L 1.859375 0 L 2.484375 0 L 1.5625 -1.578125 L 2.46875 -2.5 L 1.8125 -2.5 L 0.828125 -1.484375 L 0.828125 -3.421875 L 0.3125 -3.421875 Z M 0.3125 0 "/>
</g>
<g id="glyph-2-10">
<path d="M 1.40625 -2.125 C 1.859375 -2.125 2.09375 -1.8125 2.09375 -1.25 C 2.09375 -0.6875 1.859375 -0.375 1.40625 -0.375 C 0.96875 -0.375 0.71875 -0.6875 0.71875 -1.25 C 0.71875 -1.8125 0.96875 -2.125 1.40625 -2.125 Z M 1.40625 -2.578125 C 1.015625 -2.578125 0.71875 -2.46875 0.5 -2.234375 C 0.296875 -2 0.1875 -1.671875 0.1875 -1.25 C 0.1875 -0.828125 0.296875 -0.5 0.515625 -0.265625 C 0.71875 -0.03125 1.03125 0.078125 1.40625 0.078125 C 1.796875 0.078125 2.09375 -0.03125 2.3125 -0.28125 C 2.53125 -0.515625 2.640625 -0.828125 2.640625 -1.25 C 2.640625 -1.671875 2.53125 -2 2.3125 -2.234375 C 2.09375 -2.46875 1.78125 -2.578125 1.40625 -2.578125 Z M 1.40625 -2.578125 "/>
</g>
<g id="glyph-2-11">
<path d="M 2.25 -2.1875 C 2.078125 -2.453125 1.875 -2.5625 1.546875 -2.5625 C 1.234375 -2.5625 0.984375 -2.4375 0.8125 -2.1875 L 0.8125 -2.5 L 0.3125 -2.5 L 0.3125 0 L 0.828125 0 L 0.828125 -1.484375 C 0.828125 -1.875 1.046875 -2.109375 1.375 -2.109375 C 1.640625 -2.109375 1.796875 -1.9375 1.796875 -1.671875 L 1.796875 0 L 2.328125 0 L 2.328125 -1.5 C 2.328125 -1.875 2.53125 -2.109375 2.875 -2.109375 C 3.15625 -2.109375 3.296875 -1.9375 3.296875 -1.578125 L 3.296875 0 L 3.8125 0 L 3.8125 -1.609375 C 3.8125 -2.28125 3.5625 -2.5625 2.984375 -2.5625 C 2.6875 -2.5625 2.4375 -2.4375 2.25 -2.1875 Z M 2.25 -2.1875 "/>
</g>
<g id="glyph-2-12">
<path d="M 2.484375 -1.109375 C 2.484375 -1.109375 2.484375 -1.109375 2.484375 -1.125 C 2.484375 -1.203125 2.5 -1.25 2.5 -1.296875 C 2.5 -1.6875 2.390625 -2.015625 2.1875 -2.234375 C 1.984375 -2.46875 1.703125 -2.578125 1.359375 -2.578125 C 0.984375 -2.578125 0.703125 -2.46875 0.5 -2.234375 C 0.296875 -2 0.1875 -1.671875 0.1875 -1.265625 C 0.1875 -0.84375 0.28125 -0.515625 0.5 -0.28125 C 0.703125 -0.03125 0.984375 0.078125 1.34375 0.078125 C 1.625 0.078125 1.875 0 2.078125 -0.15625 C 2.28125 -0.3125 2.40625 -0.53125 2.453125 -0.78125 L 1.921875 -0.78125 C 1.859375 -0.53125 1.65625 -0.375 1.375 -0.375 C 0.96875 -0.375 0.75 -0.640625 0.734375 -1.109375 Z M 0.734375 -1.484375 C 0.765625 -1.90625 0.984375 -2.140625 1.34375 -2.140625 C 1.71875 -2.140625 1.9375 -1.90625 1.9375 -1.484375 Z M 0.734375 -1.484375 "/>
</g>
</g>
<clipPath id="clip-0">
<path clip-rule="nonzero" d="M 214.636719 1249.625 L 380.636719 1249.625 L 380.636719 1299.625 L 214.636719 1299.625 Z M 214.636719 1249.625 "/>
</clipPath>
</defs>

<path fill-rule="evenodd" fill="rgb(0%, 48.599243%, 67.498779%)" fill-opacity="1" d="M 279.625 1288.464844 C 279.625 1289.125 279.3125 1289.691406 278.753906 1290.039062 L 270.484375 1295.238281 C 270.117188 1295.46875 269.691406 1295.480469 269.3125 1295.269531 C 268.933594 1295.0625 268.714844 1294.691406 268.714844 1294.261719 L 268.714844 1272.195312 L 278.992188 1254.78125 C 279.003906 1254.785156 279.011719 1254.789062 279.023438 1254.796875 C 279.402344 1255.003906 279.621094 1255.375 279.621094 1255.804688 Z M 279.625 1288.464844 "/>
<path fill-rule="evenodd" fill="rgb(81.599426%, 10.998535%, 37.599182%)" fill-opacity="1" d="M 229.378906 1294.261719 C 229.378906 1294.691406 229.160156 1295.0625 228.78125 1295.269531 C 228.40625 1295.480469 227.972656 1295.46875 227.609375 1295.238281 L 219.339844 1290.039062 C 218.78125 1289.691406 218.46875 1289.125 218.46875 1288.464844 L 218.472656 1255.804688 C 218.472656 1255.375 218.691406 1255.003906 219.070312 1254.796875 C 219.082031 1254.789062 219.089844 1254.785156 219.101562 1254.78125 L 229.375 1272.195312 Z M 229.378906 1294.261719 "/>
<path fill-rule="evenodd" fill="rgb(81.199646%, 39.199829%, 15.699768%)" fill-opacity="1" d="M 245.976562 1289.0625 L 229.375 1272.195312 L 219.101562 1254.78125 C 219.113281 1254.773438 219.125 1254.769531 219.136719 1254.761719 C 219.148438 1254.757812 219.15625 1254.753906 219.164062 1254.75 C 219.167969 1254.746094 219.167969 1254.746094 219.171875 1254.746094 C 219.179688 1254.742188 219.1875 1254.738281 219.195312 1254.738281 C 219.195312 1254.734375 219.199219 1254.734375 219.203125 1254.734375 C 219.207031 1254.730469 219.210938 1254.730469 219.214844 1254.730469 C 219.21875 1254.726562 219.226562 1254.722656 219.234375 1254.722656 C 219.238281 1254.71875 219.242188 1254.71875 219.246094 1254.714844 C 219.253906 1254.714844 219.257812 1254.710938 219.261719 1254.710938 C 219.273438 1254.707031 219.285156 1254.703125 219.296875 1254.699219 C 219.304688 1254.695312 219.316406 1254.691406 219.328125 1254.691406 C 219.339844 1254.6875 219.351562 1254.683594 219.363281 1254.679688 C 219.371094 1254.679688 219.378906 1254.675781 219.386719 1254.675781 C 219.390625 1254.671875 219.398438 1254.671875 219.402344 1254.671875 C 219.40625 1254.671875 219.40625 1254.671875 219.410156 1254.667969 C 219.414062 1254.667969 219.417969 1254.667969 219.421875 1254.667969 C 219.433594 1254.664062 219.441406 1254.664062 219.453125 1254.664062 C 219.464844 1254.660156 219.476562 1254.660156 219.488281 1254.65625 C 219.492188 1254.65625 219.5 1254.65625 219.503906 1254.65625 C 219.507812 1254.65625 219.507812 1254.65625 219.511719 1254.65625 C 219.515625 1254.652344 219.523438 1254.652344 219.527344 1254.652344 C 219.535156 1254.652344 219.542969 1254.652344 219.550781 1254.652344 C 219.554688 1254.652344 219.558594 1254.652344 219.558594 1254.648438 C 219.5625 1254.648438 219.566406 1254.648438 219.570312 1254.648438 C 219.578125 1254.648438 219.585938 1254.648438 219.59375 1254.648438 C 219.613281 1254.648438 219.628906 1254.648438 219.644531 1254.648438 C 219.652344 1254.648438 219.660156 1254.648438 219.667969 1254.648438 C 219.675781 1254.648438 219.683594 1254.648438 219.6875 1254.648438 C 219.691406 1254.648438 219.695312 1254.648438 219.699219 1254.648438 C 219.699219 1254.648438 219.703125 1254.648438 219.703125 1254.652344 C 219.714844 1254.652344 219.722656 1254.652344 219.734375 1254.652344 C 219.738281 1254.652344 219.742188 1254.652344 219.746094 1254.652344 C 219.746094 1254.65625 219.746094 1254.65625 219.746094 1254.65625 C 219.75 1254.65625 219.75 1254.65625 219.753906 1254.65625 C 219.753906 1254.65625 219.753906 1254.65625 219.757812 1254.65625 C 219.757812 1254.65625 219.761719 1254.65625 219.765625 1254.65625 C 219.769531 1254.65625 219.773438 1254.65625 219.777344 1254.660156 C 219.792969 1254.660156 219.808594 1254.664062 219.824219 1254.664062 C 219.832031 1254.667969 219.835938 1254.667969 219.84375 1254.667969 C 219.851562 1254.671875 219.855469 1254.671875 219.863281 1254.671875 C 219.875 1254.675781 219.886719 1254.679688 219.902344 1254.683594 C 219.914062 1254.6875 219.925781 1254.6875 219.941406 1254.691406 C 219.949219 1254.695312 219.953125 1254.695312 219.957031 1254.699219 C 219.964844 1254.699219 219.972656 1254.703125 219.976562 1254.703125 C 219.992188 1254.707031 220.003906 1254.710938 220.015625 1254.71875 C 220.027344 1254.722656 220.042969 1254.726562 220.054688 1254.734375 C 220.066406 1254.738281 220.078125 1254.742188 220.089844 1254.75 C 220.09375 1254.75 220.097656 1254.75 220.101562 1254.753906 C 220.105469 1254.753906 220.109375 1254.757812 220.113281 1254.761719 C 220.121094 1254.761719 220.125 1254.765625 220.128906 1254.765625 C 220.132812 1254.769531 220.140625 1254.773438 220.148438 1254.773438 C 220.152344 1254.777344 220.160156 1254.78125 220.164062 1254.785156 C 220.175781 1254.789062 220.1875 1254.796875 220.199219 1254.804688 C 220.214844 1254.8125 220.222656 1254.820312 220.238281 1254.824219 L 220.242188 1254.828125 L 229.378906 1260.570312 L 241.445312 1268.152344 Z M 245.976562 1289.0625 "/>
<path fill-rule="evenodd" fill="rgb(7.499695%, 27.799988%, 47.799683%)" fill-opacity="1" d="M 278.992188 1254.78125 L 268.71875 1272.195312 L 252.117188 1289.0625 L 256.648438 1268.152344 L 268.714844 1260.570312 L 277.851562 1254.828125 L 277.855469 1254.824219 C 277.867188 1254.820312 277.882812 1254.8125 277.894531 1254.804688 C 277.90625 1254.796875 277.917969 1254.789062 277.929688 1254.785156 C 277.941406 1254.777344 277.953125 1254.773438 277.964844 1254.765625 C 277.976562 1254.761719 277.992188 1254.753906 278.003906 1254.75 C 278.015625 1254.742188 278.027344 1254.738281 278.039062 1254.734375 C 278.054688 1254.726562 278.066406 1254.722656 278.078125 1254.71875 C 278.089844 1254.710938 278.101562 1254.707031 278.117188 1254.703125 C 278.140625 1254.695312 278.164062 1254.6875 278.191406 1254.683594 C 278.203125 1254.679688 278.21875 1254.675781 278.230469 1254.671875 C 278.285156 1254.660156 278.339844 1254.652344 278.390625 1254.652344 C 278.414062 1254.648438 278.4375 1254.648438 278.464844 1254.648438 C 278.5 1254.648438 278.535156 1254.648438 278.574219 1254.652344 C 278.585938 1254.65625 278.597656 1254.65625 278.605469 1254.65625 C 278.617188 1254.660156 278.628906 1254.660156 278.640625 1254.664062 C 278.652344 1254.664062 278.660156 1254.664062 278.671875 1254.667969 C 278.679688 1254.667969 278.683594 1254.671875 278.691406 1254.671875 C 278.695312 1254.671875 278.699219 1254.671875 278.703125 1254.671875 C 278.710938 1254.675781 278.722656 1254.679688 278.730469 1254.679688 C 278.742188 1254.683594 278.753906 1254.6875 278.765625 1254.691406 C 278.773438 1254.691406 278.785156 1254.695312 278.796875 1254.699219 C 278.796875 1254.699219 278.800781 1254.699219 278.804688 1254.703125 C 278.8125 1254.703125 278.820312 1254.707031 278.832031 1254.710938 C 278.84375 1254.714844 278.851562 1254.71875 278.863281 1254.722656 C 278.894531 1254.734375 278.925781 1254.746094 278.957031 1254.761719 C 278.96875 1254.765625 278.980469 1254.773438 278.988281 1254.777344 C 278.992188 1254.777344 278.992188 1254.777344 278.992188 1254.78125 "/>
<path fill-rule="evenodd" fill="rgb(91.799927%, 63.09967%, 13.699341%)" fill-opacity="1" d="M 256.648438 1268.152344 L 252.117188 1289.0625 L 249.046875 1292.179688 L 249.046875 1272.933594 Z M 256.648438 1268.152344 "/>
<path fill-rule="evenodd" fill="rgb(91.799927%, 63.09967%, 13.699341%)" fill-opacity="1" d="M 249.046875 1272.933594 L 249.046875 1292.179688 L 245.976562 1289.0625 L 241.445312 1268.152344 Z M 249.046875 1272.933594 "/>
<g fill="rgb(7.499695%, 27.799988%, 47.799683%)" fill-opacity="1">
<use xlink:href="#glyph-0-0" x="290.8196" y="1272.8867"/>
<use xlink:href="#glyph-0-1" x="305.16425" y="1272.8867"/>
</g>
<g fill="rgb(7.499695%, 27.799988%, 47.799683%)" fill-opacity="1">
<use xlink:href="#glyph-0-2" x="317.408638" y="1272.8867"/>
<use xlink:href="#glyph-0-3" x="328.667188" y="1272.8867"/>
<use xlink:href="#glyph-0-4" x="339.325663" y="1272.8867"/>
</g>
<g fill="rgb(7.499695%, 27.799988%, 47.799683%)" fill-opacity="1">
<use xlink:href="#glyph-0-5" x="349.811259" y="1272.8867"/>
<use xlink:href="#glyph-0-6" x="359.841084" y="1272.8867"/>
<use xlink:href="#glyph-0-7" x="365.513221" y="1272.8867"/>
</g>
<g fill="rgb(7.499695%, 27.799988%, 47.799683%)" fill-opacity="1">
<use xlink:href="#glyph-1-0" x="290.9124" y="1283.877"/>
<use xlink:href="#glyph-1-1" x="297.063963" y="1283.877"/>
<use xlink:href="#glyph-1-2" x="303.3584" y="1283.877"/>
<use xlink:href="#glyph-1-3" x="306.549275" y="1283.877"/>
<use xlink:href="#glyph-1-4" x="313.61365" y="1283.877"/>
</g>
<g fill="rgb(7.499695%, 27.799988%, 47.799683%)" fill-opacity="1">
<use xlink:href="#glyph-1-5" x="318.970669" y="1283.877"/>
<use xlink:href="#glyph-1-6" x="321.844044" y="1283.877"/>
<use xlink:href="#glyph-1-7" x="327.701919" y="1283.877"/>
<use xlink:href="#glyph-1-8" x="335.052044" y="1283.877"/>
</g>
<g fill="rgb(7.499695%, 27.799988%, 47.799683%)" fill-opacity="1">
<use xlink:href="#glyph-1-9" x="340.449544" y="1283.877"/>
<use xlink:href="#glyph-1-4" x="347.283731" y="1283.877"/>
<use xlink:href="#glyph-1-2" x="352.887606" y="1283.877"/>
<use xlink:href="#glyph-1-7" x="356.078481" y="1283.877"/>
<use xlink:href="#glyph-1-3" x="363.428606" y="1283.877"/>
<use xlink:href="#glyph-1-6" x="370.492981" y="1283.877"/>
</g>
<g fill="rgb(0%, 48.599243%, 67.498779%)" fill-opacity="1">
<use xlink:href="#glyph-2-0" x="306.0833" y="1290.4365"/>
<use xlink:href="#glyph-2-1" x="309.6774" y="1290.4365"/>
<use xlink:href="#glyph-2-2" x="311.888056" y="1290.4365"/>
<use xlink:href="#glyph-2-3" x="313.571008" y="1290.4365"/>
<use xlink:href="#glyph-2-4" x="316.856091" y="1290.4365"/>
<use xlink:href="#glyph-2-5" x="318.791009" y="1290.4365"/>
<use xlink:href="#glyph-2-6" x="320.6356" y="1290.4365"/>
<use xlink:href="#glyph-2-0" x="322.480191" y="1290.4365"/>
<use xlink:href="#glyph-2-7" x="326.074291" y="1290.4365"/>
<use xlink:href="#glyph-2-8" x="329.216751" y="1290.4365"/>
<use xlink:href="#glyph-2-9" x="332.292653" y="1290.4365"/>
<use xlink:href="#glyph-2-5" x="335.354294" y="1290.4365"/>
<use xlink:href="#glyph-2-6" x="337.198884" y="1290.4365"/>
<use xlink:href="#glyph-2-0" x="339.043475" y="1290.4365"/>
<use xlink:href="#glyph-2-1" x="342.637575" y="1290.4365"/>
<use xlink:href="#glyph-2-10" x="344.848231" y="1290.4365"/>
<use xlink:href="#glyph-2-11" x="348.190364" y="1290.4365"/>
<use xlink:href="#glyph-2-10" x="352.830365" y="1290.4365"/>
<use xlink:href="#glyph-2-4" x="356.172498" y="1290.4365"/>
<use xlink:href="#glyph-2-12" x="358.107416" y="1290.4365"/>
</g>
</svg>
